
{"glyphs":{"32":{"ha":2048},"33":{"x_min":682,"x_max":1193,"ha":1875,"o":"m 682 0 l 682 1024 l 1193 1024 l 1193 0 l 682 0 m 682 1536 l 1193 1536 l 1193 1024 l 682 1024 l 682 1536 "},"34":{"x_min":410,"x_max":1434,"ha":1843,"o":"m 410 1024 l 410 1536 l 922 1536 l 922 1024 l 410 1024 m 922 1024 l 922 1536 l 1434 1536 l 1434 1024 l 922 1024 "},"35":{"x_min":136,"x_max":1927,"ha":2048,"o":"m 819 0 l 682 0 l 682 512 l 136 512 l 136 819 l 682 819 l 682 1229 l 819 1229 l 819 819 l 1229 819 l 1229 682 l 819 682 l 819 0 m 1229 0 l 1229 682 l 1775 682 l 1775 819 l 1229 819 l 1229 1229 l 1366 1229 l 1366 819 l 1927 819 l 1927 512 l 1366 512 l 1366 0 l 1229 0 "},"36":{"x_min":0,"x_max":1365,"ha":1365,"o":"m 341 0 l 0 341 l 341 682 l 1024 682 l 1024 1024 l 341 1024 l 0 1365 l 341 1365 l 1024 1365 l 1365 1024 l 1024 682 l 341 682 l 341 341 l 1024 341 l 1365 0 l 1024 0 l 341 0 "},"37":{"x_min":73,"x_max":1976,"ha":2048,"o":"m 73 1024 l 73 1536 l 585 1536 l 585 1024 l 73 1024 m 585 1024 l 585 1536 l 1097 1536 l 1097 1024 l 585 1024 m 951 0 l 951 512 l 1463 512 l 1463 0 l 951 0 m 1463 0 l 1463 512 l 1976 512 l 1976 0 l 1463 0 m 73 1536 l 1976 0"},"38":{"x_min":0,"x_max":1536,"ha":1536,"o":"m 0 341 l 341 682 l 1024 682 l 1365 1024 l 1024 1365 l 341 1365 l 0 1024 l 341 682 l 0 341 m 1024 0 l 1365 341 l 1024 682 l 683 682 l 1024 341 l 683 0 l 1024 0 "},"39":{"x_min":410,"x_max":922,"ha":1331,"o":"m 410 1024 l 410 1536 l 922 1536 l 922 1024 l 410 1024 "},"40":{"x_min":256,"x_max":768,"ha":1024,"o":"m 768 -341 l 597 -341 l 256 0 l 256 341 l 597 682 l 768 682 l 597 1024 l 256 1365 l 256 1707 l 597 2048 l 768 2048 l 597 1707 l 597 341 l 768 0 l 768 -341 "},"41":{"x_min":256,"x_max":768,"ha":1024,"o":"m 256 -341 l 256 0 l 427 341 l 768 0 l 768 341 l 427 682 l 256 682 l 427 1024 l 768 1365 l 768 1707 l 427 2048 l 256 2048 l 427 1707 l 427 341 l 256 0 l 256 -341 "},"42":{"x_min":0,"x_max":1536,"ha":1536,"o":"m 0 1024 l 341 1365 l 683 1024 l 1024 1365 l 1365 1024 l 1024 683 l 1365 341 l 1024 0 l 683 341 l 341 0 l 0 341 l 341 683 l 0 1024 "},"43":{"x_min":0,"x_max":1536,"ha":1536,"o":"m 683 0 l 683 683 l 0 683 l 0 853 l 683 853 l 683 1536 l 853 1536 l 853 853 l 1536 853 l 1536 683 l 853 683 l 853 0 l 683 0 "},"44":{"x_min":341,"x_max":853,"ha":1194,"o":"m 341 -341 l 341 0 l 853 0 l 853 512 l 341 512 l 341 -341 "},"45":{"x_min":0,"x_max":1024,"ha":1024,"o":"m 0 683 l 0 853 l 1024 853 l 1024 683 l 0 683 "},"46":{"x_min":341,"x_max":853,"ha":1194,"o":"m 341 0 l 341 512 l 853 512 l 853 0 l 341 0 "},"47":{"x_min":0,"x_max":1024,"ha":1024,"o":"m 0 0 l 0 341 l 1024 1365 l 1024 1024 l 0 0 "},"48":{"x_min":0,"x_max":1365,"ha":1365,"o":"m 0 341 l 341 0 l 1024 0 l 1365 341 l 1365 1024 l 1024 1365 l 341 1365 l 0 1024 l 0 341 m 341 341 l 341 1024 l 1024 1024 l 1024 341 l 341 341 "},"49":{"x_min":256,"x_max":1024,"ha":1024,"o":"m 256 1024 l 512 1365 l 1024 1365 l 1024 0 l 683 0 l 683 1024 l 256 1024 "},"50":{"x_min":0,"x_max":1365,"ha":1365,"o":"m 0 0 l 0 341 l 1024 1365 l 341 1365 l 0 1024 l 0 1365 l 341 1365 l 1024 1365 l 1365 1024 l 1365 683 l 341 0 l 1365 0 l 1365 0 l 0 0 "},"51":{"x_min":0,"x_max":1365,"ha":1365,"o":"m 0 341 l 341 0 l 1024 0 l 1365 341 l 1365 682 l 1024 1024 l 1365 1365 l 1024 1365 l 341 1365 l 0 1024 l 341 1024 l 1024 1024 l 1024 682 l 341 682 l 341 341 l 1024 341 l 1024 682 l 1024 341 l 341 341 "},"52":{"x_min":0,"x_max":1365,"ha":1365,"o":"m 0 512 l 0 853 l 1024 853 l 1024 1365 l 1365 1365 l 1365 0 l 1024 0 l 1024 512 l 0 512 "},"53":{"x_min":0,"x_max":1365,"ha":1365,"o":"m 0 0 l 0 341 l 1024 341 l 1024 682 l 341 682 l 0 1024 l 0 1365 l 1365 1365 l 1365 1024 l 341 1024 l 341 682 l 1024 682 l 1365 341 l 1365 0 l 0 0 "},"54":{"x_min":0,"x_max":1365,"ha":1365,"o":"m 0 341 l 341 0 l 1024 0 l 1365 341 l 1365 682 l 1024 1024 l 341 1024 l 0 683 l 0 341 m 341 341 l 341 683 l 1024 683 l 1024 341 l 341 341 m 0 1024 l 341 1365 l 1024 1365 l 1024 1024 l 0 1024 "},"55":{"x_min":0,"x_max":1365,"ha":1365,"o":"m 0 1024 l 0 1365 l 1365 1365 l 1365 1024 l 341 0 l 0 0 l 0 1024 "},"56":{"x_min":0,"x_max":1365,"ha":1365,"o":"m 0 341 l 341 0 l 1024 0 l 1365 341 l 1365 682 l 1024 1024 l 1365 1365 l 1024 1365 l 341 1365 l 0 1024 l 341 682 l 0 341 m 341 341 l 341 682 l 1024 682 l 1024 341 l 341 341 m 341 1024 l 341 1365 l 1024 1365 l 1024 1024 l 341 1024 "},"57":{"x_min":0,"x_max":1365,"ha":1365,"o":"m 1365 1024 l 1024 1365 l 341 1365 l 0 1024 l 0 683 l 341 341 l 1024 341 l 1365 682 l 1365 1024 m 1024 1024 l 1024 682 l 341 682 l 341 1024 l 1024 1024 m 1365 341 l 1024 0 l 341 0 l 341 341 l 1365 341 "},"58":{"x_min":341,"x_max":853,"ha":1194,"o":"m 341 0 l 341 512 l 853 512 l 853 0 l 341 0 m 341 1024 l 341 1536 l 853 1536 l 853 1024 l 341 1024 "},"59":{"x_min":341,"x_max":853,"ha":1194,"o":"m 341 -341 l 341 0 l 853 0 l 853 512 l 341 512 l 341 -341 m 341 1024 l 341 1536 l 853 1536 l 853 1024 l 341 1024 "},"60":{"x_min":0,"x_max":1536,"ha":1536,"o":"m 1536 256 l 0 768 l 1536 1280 l 1536 1024 l 512 768 l 1536 512 l 1536 256 "},"61":{"x_min":0,"x_max":1536,"ha":1536,"o":"m 0 512 l 0 682 l 1536 682 l 1536 512 l 0 512 m 0 854 l 0 1024 l 1536 1024 l 1536 854 l 0 854 "},"62":{"x_min":0,"x_max":1536,"ha":1536,"o":"m 0 256 l 0 512 l 1024 768 l 0 1024 l 0 1280 l 1536 768 l 0 256 "},"63":{"x_min":0,"x_max":1365,"ha":1365,"o":"m 0 1024 l 341 1365 l 1024 1365 l 1365 1024 l 1365 683 l 1024 341 l 683 341 l 683 0 l 341 0 l 341 341 l 683 683 l 1024 683 l 1024 1024 l 341 1024 l 0 1024 m 341 -341 l 341 171 l 683 171 l 683 -341 l 341 -341 "},"64":{"x_min":0,"x_max":1878,"ha":1878,"o":"m 0 341 l 341 0 l 1536 0 l 1878 341 l 1878 1024 l 1536 1365 l 341 1365 l 0 1024 l 0 341 m 341 341 l 341 1024 l 1536 1024 l 1536 341 l 341 341 m 683 683 l 1024 683 l 1365 1024 l 1024 1365 l 683 1024 l 683 683 m 1024 683 l 1024 1024 l 1365 1024 l 1365 683 l 1024 683 "},"65":{"x_min":0,"x_max":1365,"ha":1365,"o":"m 0 0 l 0 1024 l 341 1365 l 1024 1365 l 1365 1024 l 1365 0 l 1024 0 l 1024 1024 l 341 1024 l 341 0 l 0 0 m 341 512 l 341 853 l 1024 853 l 1024 512 l 341 512 "},"66":{"x_min":0,"x_max":1365,"ha":1365,"o":"m 0 0 l 0 1365 l 1024 1365 l 1365 1024 l 1365 683 l 1024 341 l 1365 0 l 1024 0 l 341 341 l 1024 341 l 1024 683 l 1024 1024 l 341 1024 l 341 0 l 0 0 "},"67":{"x_min":0,"x_max":1365,"ha":1365,"o":"m 1365 0 l 341 0 l 0 341 l 0 1024 l 341 1365 l 1365 1365 l 1365 1024 l 1024 1024 l 341 1024 l 341 341 l 1024 341 l 1365 341 l 1365 0 "},"68":{"x_min":0,"x_max":1365,"ha":1365,"o":"m 0 0 l 0 1365 l 1024 1365 l 1365 1024 l 1365 341 l 1024 0 l 0 0 m 341 341 l 1024 341 l 1024 1024 l 341 1024 l 341 341 "},"69":{"x_min":0,"x_max":1365,"ha":1365,"o":"m 0 0 l 0 1365 l 1365 1365 l 1365 1024 l 341 1024 l 341 853 l 1024 853 l 1024 512 l 341 512 l 341 341 l 1365 341 l 1365 0 l 0 0 "},"70":{"x_min":0,"x_max":1365,"ha":1365,"o":"m 0 0 l 0 1365 l 1365 1365 l 1365 1024 l 341 1024 l 341 853 l 1024 853 l 1024 512 l 341 512 l 341 0 l 0 0 "},"71":{"x_min":0,"x_max":1365,"ha":1365,"o":"m 1365 0 l 341 0 l 0 341 l 0 1024 l 341 1365 l 1365 1365 l 1365 1024 l 1024 1024 l 341 1024 l 341 341 l 1024 341 l 1024 683 l 1365 683 l 1365 0 "},"72":{"x_min":0,"x_max":1365,"ha":1365,"o":"m 0 0 l 0 1365 l 341 1365 l 341 853 l 1024 853 l 1024 1365 l 1365 1365 l 1365 0 l 1024 0 l 1024 512 l 341 512 l 341 0 l 0 0 "},"73":{"x_min":341,"x_max":1024,"ha":1365,"o":"m 341 0 l 341 1365 l 1024 1365 l 1024 0 l 341 0 "},"74":{"x_min":0,"x_max":1365,"ha":1365,"o":"m 1024 1365 l 1365 1365 l 1365 341 l 1024 0 l 341 0 l 0 341 l 0 683 l 341 683 l 341 341 l 1024 341 l 1024 1365 "},"75":{"x_min":0,"x_max":1365,"ha":1365,"o":"m 0 0 l 0 1365 l 341 1365 l 341 853 l 1024 1365 l 1365 1365 l 682 853 l 1365 0 l 1024 0 l 341 512 l 341 0 l 0 0 "},"76":{"x_min":0,"x_max":1365,"ha":1365,"o":"m 0 0 l 0 1365 l 341 1365 l 341 341 l 1365 341 l 1365 0 l 0 0 "},"77":{"x_min":0,"x_max":1365,"ha":1365,"o":"m 0 0 l 0 1365 l 341 1365 l 683 1024 l 1024 1365 l 1365 1365 l 1365 0 l 1024 0 l 1024 853 l 683 512 l 341 853 l 341 0 l 0 0 "},"78":{"x_min":0,"x_max":1365,"ha":1365,"o":"m 0 0 l 0 1365 l 341 1365 l 1024 682 l 1024 1365 l 1365 1365 l 1365 0 l 1024 0 l 341 683 l 341 0 l 0 0 "},"79":{"x_min":0,"x_max":1365,"ha":1365,"o":"m 0 341 l 341 0 l 1024 0 l 1365 341 l 1365 1024 l 1024 1365 l 341 1365 l 0 1024 l 0 341 m 341 341 l 341 1024 l 1024 1024 l 1024 341 l 341 341 "},"80":{"x_min":0,"x_max":1365,"ha":1365,"o":"m 0 0 l 0 1365 l 1024 1365 l 1365 1024 l 1365 683 l 1024 341 l 341 341 l 341 0 l 0 0 m 341 683 l 1024 683 l 1024 1024 l 341 1024 l 341 683 "},"81":{"x_min":0,"x_max":1365,"ha":1365,"o":"m 0 341 l 341 0 l 1024 0 l 1365 341 l 1365 1024 l 1024 1365 l 341 1365 l 0 1024 l 0 341 m 341 341 l 341 1024 l 1024 1024 l 1024 341 l 341 341 m 853 0 l 853 -341 l 1194 -341 l 1194 0 l 853 0 "},"82":{"x_min":0,"x_max":1365,"ha":1365,"o":"m 0 0 l 0 1365 l 1024 1365 l 1365 1024 l 1365 683 l 1024 341 l 1365 0 l 1024 0 l 683 341 l 341 341 l 341 0 l 0 0 m 341 683 l 1024 683 l 1024 1024 l 341 1024 l 341 683 "},"83":{"x_min":0,"x_max":1365,"ha":1365,"o":"m 1365 0 l 341 0 l 0 341 l 0 683 l 341 1024 l 1024 1024 l 1365 1365 l 1024 1365 l 341 1365 l 0 1024 l 341 1024 l 1024 1024 l 1024 683 l 341 683 l 0 341 l 0 0 l 1365 0 "},"84":{"x_min":0,"x_max":1365,"ha":1365,"o":"m 0 1024 l 0 1365 l 1365 1365 l 1365 1024 l 853 1024 l 853 0 l 512 0 l 512 1024 l 0 1024 "},"85":{"x_min":0,"x_max":1365,"ha":1365,"o":"m 0 341 l 341 0 l 1024 0 l 1365 341 l 1365 1365 l 1024 1365 l 1024 341 l 341 341 l 341 1365 l 0 1365 l 0 341 "},"86":{"x_min":0,"x_max":1365,"ha":1365,"o":"m 0 1365 l 341 1365 l 683 683 l 1024 1365 l 1365 1365 l 853 0 l 512 0 l 0 1365 "},"87":{"x_min":0,"x_max":1365,"ha":1365,"o":"m 0 1365 l 341 1365 l 341 512 l 683 853 l 1024 512 l 1024 1365 l 1365 1365 l 1365 0 l 1024 0 l 683 512 l 341 0 l 0 0 l 0 1365 "},"88":{"x_min":0,"x_max":1365,"ha":1365,"o":"m 0 0 l 0 341 l 512 853 l 0 1365 l 341 1365 l 683 1024 l 1024 1365 l 1365 1365 l 853 853 l 1365 341 l 1365 0 l 1024 0 l 683 341 l 341 0 l 0 0 "},"89":{"x_min":0,"x_max":1365,"ha":1365,"o":"m 0 1365 l 341 1365 l 683 1024 l 1024 1365 l 1365 1365 l 853 512 l 853 0 l 512 0 l 512 512 l 0 1365 "},"90":{"x_min":0,"x_max":1365,"ha":1365,"o":"m 0 0 l 0 341 l 1024 1365 l 0 1365 l 0 1365 l 1365 1365 l 1365 1024 l 341 0 l 1365 0 l 1365 0 l 0 0 "},"91":{"x_min":256,"x_max":768,"ha":1024,"o":"m 256 -341 l 256 1707 l 768 1707 l 768 1365 l 597 1365 l 597 0 l 768 0 l 768 -341 l 256 -341 "},"92":{"x_min":0,"x_max":1024,"ha":1024,"o":"m 1024 0 l 1024 341 l 0 1365 l 0 1024 l 1024 0 "},"93":{"x_min":256,"x_max":768,"ha":1024,"o":"m 768 -341 l 256 -341 l 256 0 l 427 0 l 427 1365 l 256 1365 l 256 1707 l 768 1707 l 768 -341 "},"94":{"x_min":0,"x_max":1365,"ha":1365,"o":"m 0 1024 l 341 1365 l 683 1024 l 1024 1365 l 1365 1024 l 853 512 l 512 512 l 0 1024 "},"95":{"x_min":0,"x_max":1365,"ha":1365,"o":"m 0 -341 l 0 0 l 1365 0 l 1365 -341 l 0 -341 "},"96":{"x_min":410,"x_max":922,"ha":1331,"o":"m 410 1024 l 410 1536 l 922 1536 l 922 1024 l 410 1024 "},"97":{"x_min":0,"x_max":1365,"ha":1365,"o":"m 0 0 l 0 683 l 341 1024 l 1024 1024 l 1365 683 l 1365 0 l 1024 0 l 1024 683 l 341 683 l 341 0 l 0 0 m 341 341 l 341 683 l 1024 683 l 1024 341 l 341 341 "},"98":{"x_min":0,"x_max":1365,"ha":1365,"o":"m 0 0 l 0 1365 l 341 1365 l 341 1024 l 1024 1024 l 1365 683 l 1365 341 l 1024 0 l 0 0 m 341 341 l 1024 341 l 1024 683 l 341 683 l 341 341 "},"99":{"x_min":0,"x_max":1365,"ha":1365,"o":"m 1365 0 l 341 0 l 0 341 l 0 683 l 341 1024 l 1365 1024 l 1365 683 l 1024 683 l 341 683 l 341 341 l 1024 341 l 1365 341 l 1365 0 "},"100":{"x_min":0,"x_max":1365,"ha":1365,"o":"m 1365 0 l 341 0 l 0 341 l 0 683 l 341 1024 l 1024 1024 l 1024 1365 l 1365 1365 l 1365 0 m 341 341 l 341 683 l 1024 683 l 1024 341 l 341 341 "},"101":{"x_min":0,"x_max":1365,"ha":1365,"o":"m 0 0 l 0 341 l 341 0 l 1365 0 l 1365 341 l 1024 341 l 341 341 l 341 683 l 1024 683 l 1024 1024 l 341 1024 l 0 683 l 0 0 "},"102":{"x_min":0,"x_max":1024,"ha":1024,"o":"m 0 0 l 0 853 l 341 853 l 341 1024 l 683 1365 l 1024 1365 l 1024 1024 l 683 1024 l 683 853 l 1024 853 l 1024 512 l 683 512 l 683 0 l 341 0 l 341 512 l 0 512 l 0 0 "},"103":{"x_min":0,"x_max":1365,"ha":1365,"o":"m 0 341 l 341 0 l 1024 0 l 1365 341 l 1365 1024 l 1024 1024 l 1024 683 l 341 683 l 341 1024 l 0 1024 l 0 341 m 341 341 l 341 683 l 1024 683 l 1024 341 l 341 341 m 1024 -341 l 341 -341 l 0 0 l 341 0 l 1024 0 l 1365 -341 l 1024 -341 "},"104":{"x_min":0,"x_max":1365,"ha":1365,"o":"m 0 0 l 0 1365 l 341 1365 l 341 1024 l 1024 1024 l 1365 683 l 1365 0 l 1024 0 l 1024 683 l 341 683 l 341 0 l 0 0 "},"105":{"x_min":341,"x_max":1024,"ha":1365,"o":"m 341 0 l 341 1024 l 1024 1024 l 1024 0 l 341 0 m 341 1195 l 341 1707 l 1024 1707 l 1024 1195 l 341 1195 "},"106":{"x_min":0,"x_max":1024,"ha":1024,"o":"m 683 0 l 341 -341 l 0 -341 l 341 0 l 683 0 l 1024 341 l 1024 1024 l 683 1024 l 683 341 l 683 0 m 683 1195 l 683 1707 l 1024 1707 l 1024 1195 l 683 1195 "},"107":{"x_min":0,"x_max":1365,"ha":1365,"o":"m 0 0 l 0 1365 l 341 1365 l 341 683 l 1024 1024 l 1365 1024 l 682 683 l 1365 0 l 1024 0 l 341 341 l 341 0 l 0 0 "},"108":{"x_min":341,"x_max":1024,"ha":1365,"o":"m 341 0 l 341 1365 l 1024 1365 l 1024 0 l 341 0 "},"109":{"x_min":0,"x_max":1878,"ha":1878,"o":"m 0 0 l 0 1024 l 341 1024 l 341 683 l 683 683 l 683 1024 l 1024 1024 l 1024 683 l 1365 683 l 1365 1024 l 1707 1024 l 1707 0 l 1365 0 l 1365 341 l 1024 341 l 1024 0 l 683 0 l 683 341 l 341 341 l 341 0 l 0 0 "},"110":{"x_min":0,"x_max":1365,"ha":1365,"o":"m 0 0 l 0 1024 l 341 1024 l 341 683 l 1024 683 l 1365 1024 l 1365 0 l 1024 0 l 1024 341 l 341 341 l 341 0 l 0 0 "},"111":{"x_min":0,"x_max":1365,"ha":1365,"o":"m 0 341 l 341 0 l 1024 0 l 1365 341 l 1365 683 l 1024 1024 l 341 1024 l 0 683 l 0 341 m 341 341 l 341 683 l 1024 683 l 1024 341 l 341 341 "},"112":{"x_min":0,"x_max":1365,"ha":1365,"o":"m 0 -341 l 0 1024 l 341 1024 l 341 683 l 1024 683 l 1365 341 l 1365 0 l 1024 -341 l 0 -341 m 341 341 l 1024 341 l 1024 0 l 341 0 l 341 341 "},"113":{"x_min":0,"x_max":1365,"ha":1365,"o":"m 1365 -341 l 341 -341 l 0 0 l 0 341 l 341 683 l 1024 683 l 1024 1024 l 1365 1024 l 1365 -341 m 341 341 l 341 0 l 1024 0 l 1024 341 l 341 341 "},"114":{"x_min":0,"x_max":1024,"ha":1024,"o":"m 0 0 l 0 1024 l 341 1024 l 341 683 l 683 683 l 1024 1024 l 1024 683 l 683 341 l 341 341 l 341 0 l 0 0 "},"115":{"x_min":0,"x_max":1365,"ha":1365,"o":"m 1365 0 l 341 0 l 0 341 l 341 683 l 1024 683 l 1024 1024 l 341 1024 l 0 683 l 0 1024 l 341 1024 l 1024 1024 l 1365 683 l 1024 341 l 341 341 l 341 0 l 1024 0 l 1365 341 l 1365 0 "},"116":{"x_min":0,"x_max":1024,"ha":1024,"o":"m 341 0 l 341 512 l 0 512 l 0 853 l 341 853 l 341 1024 l 683 1365 l 1024 1365 l 1024 1024 l 683 1024 l 683 853 l 1024 853 l 1024 512 l 683 512 l 683 341 l 1024 341 l 1024 0 l 341 0 "},"117":{"x_min":0,"x_max":1365,"ha":1365,"o":"m 0 341 l 341 0 l 1024 0 l 1024 1024 l 1365 1024 l 1365 0 l 1024 0 l 341 341 l 341 1024 l 0 1024 l 0 341 "},"118":{"x_min":0,"x_max":1365,"ha":1365,"o":"m 0 1024 l 341 1024 l 683 341 l 1024 1024 l 1365 1024 l 853 0 l 512 0 l 0 1024 "},"119":{"x_min":0,"x_max":1878,"ha":1878,"o":"m 0 1024 l 341 1024 l 341 341 l 683 341 l 683 1024 l 1024 1024 l 1024 341 l 1365 341 l 1365 1024 l 1707 1024 l 1707 0 l 1365 0 l 1024 341 l 683 0 l 341 0 l 0 1024 "},"120":{"x_min":0,"x_max":1365,"ha":1365,"o":"m 0 0 l 0 341 l 512 683 l 0 1024 l 341 1024 l 683 683 l 1024 1024 l 1365 1024 l 853 683 l 1365 341 l 1365 0 l 1024 0 l 683 341 l 341 0 l 0 0 "},"121":{"x_min":0,"x_max":1365,"ha":1365,"o":"m 0 1024 l 341 1024 l 683 341 l 1024 1024 l 1365 1024 l 1024 0 l 683 -341 l 341 -341 l 683 0 l 0 1024 "},"122":{"x_min":0,"x_max":1365,"ha":1365,"o":"m 0 0 l 0 341 l 1024 1024 l 0 1024 l 0 1024 l 1365 1024 l 1365 683 l 341 0 l 1365 0 l 1365 0 l 0 0 "},"123":{"x_min":0,"x_max":1024,"ha":1024,"o":"m 683 -341 l 683 0 l 1024 0 l 1024 341 l 683 341 l 683 683 l 341 683 l 0 1024 l 341 1365 l 683 1365 l 683 1707 l 1024 1707 l 1024 2048 l 683 2048 l 683 1707 l 341 1707 l 341 1365 l 683 1365 l 683 1024 l 1024 1024 l 1024 683 l 683 683 l 683 341 l 341 341 l 341 0 l 683 0 l 683 -341 "},"124":{"x_min":341,"x_max":683,"ha":1024,"o":"m 341 -341 l 341 2048 l 683 2048 l 683 -341 l 341 -341 "},"125":{"x_min":0,"x_max":1024,"ha":1024,"o":"m 341 -341 l 341 0 l 0 0 l 0 341 l 341 341 l 341 683 l 683 683 l 1024 1024 l 683 1365 l 341 1365 l 341 1707 l 0 1707 l 0 2048 l 341 2048 l 341 1707 l 683 1707 l 683 1365 l 341 1365 l 341 1024 l 0 1024 l 0 683 l 341 683 l 341 341 l 683 341 l 683 0 l 341 0 l 341 -341 "},"126":{"x_min":0,"x_max":1878,"ha":1878,"o":"m 0 683 l 341 1024 l 683 683 l 1024 1024 l 1365 683 l 1707 1024 l 1878 853 l 1707 683 l 1365 1024 l 1024 683 l 683 1024 l 341 683 l 0 853 l 0 683 "},"160":{"ha":682},"161":{"x_min":682,"x_max":1193,"ha":1875,"o":"m 682 -341 l 682 683 l 1193 683 l 1193 -341 l 682 -341 m 682 853 l 1193 853 l 1193 1365 l 682 1365 l 682 853 "},"162":{"x_min":0,"x_max":1365,"ha":1365,"o":"m 683 -341 l 683 0 l 341 0 l 0 341 l 0 683 l 341 1024 l 683 1024 l 683 1365 l 1024 1365 l 1024 1024 l 1365 1024 l 1365 683 l 1024 683 l 341 683 l 341 341 l 1024 341 l 1365 341 l 1365 0 l 1024 0 l 1024 -341 l 683 -341 "},"163":{"x_min":0,"x_max":1365,"ha":1365,"o":"m 0 0 l 0 341 l 341 341 l 341 512 l 0 512 l 0 853 l 341 853 l 341 1024 l 683 1365 l 1024 1365 l 1365 1024 l 1024 1024 l 683 1024 l 683 853 l 1365 853 l 1365 512 l 1024 512 l 1024 341 l 1365 341 l 1365 0 l 0 0 "},"164":{"x_min":0,"x_max":1536,"ha":1536,"o":"m 0 341 l 341 0 l 1024 0 l 1365 341 l 1024 683 l 1365 1024 l 1024 1365 l 341 1365 l 0 1024 l 341 683 l 0 341 m 341 341 l 341 683 l 1024 683 l 1024 341 l 341 341 m 341 1024 l 341 1365 l 1024 1365 l 1024 1024 l 341 1024 m 1365 256 l 1536 256 l 1536 1280 l 1365 1280 l 1365 256 "},"165":{"x_min":0,"x_max":1365,"ha":1365,"o":"m 0 1365 l 341 1365 l 683 853 l 1024 1365 l 1365 1365 l 853 683 l 1024 683 l 1024 512 l 341 512 l 341 683 l 512 683 l 853 0 l 512 0 l 0 1365 m 0 170 l 0 341 l 1365 341 l 1365 170 l 0 170 "},"166":{"x_min":341,"x_max":683,"ha":1024,"o":"m 341 -341 l 341 683 l 683 683 l 683 -341 l 341 -341 m 341 1024 l 341 2048 l 683 2048 l 683 1024 l 341 1024 "},"167":{"x_min":0,"x_max":1365,"ha":1365,"o":"m 0 341 l 341 0 l 1024 0 l 1365 341 l 1365 512 l 1024 853 l 1365 1195 l 1365 1365 l 1024 1365 l 341 1365 l 0 1024 l 0 853 l 341 512 l 0 170 l 0 341 m 341 341 l 341 512 l 1024 512 l 1024 341 l 341 341 m 341 853 l 341 1024 l 1024 1024 l 1024 853 l 341 853 "},"168":{"x_min":341,"x_max":1365,"ha":1706,"o":"m 341 1195 l 341 1707 l 853 1707 l 853 1195 l 341 1195 m 853 1195 l 853 1707 l 1365 1707 l 1365 1195 l 853 1195 "},"169":{"x_min":0,"x_max":1878,"ha":1878,"o":"m 0 341 l 341 0 l 1536 0 l 1878 341 l 1878 1024 l 1536 1365 l 341 1365 l 0 1024 l 0 341 m 341 341 l 341 1024 l 1536 1024 l 1536 341 l 341 341 m 683 512 l 1024 512 l 1365 853 l 1024 1195 l 683 853 l 683 512 m 1024 512 l 1024 853 l 1365 853 l 1365 512 l 1024 512 "},"170":{"x_min":0,"x_max":1365,"ha":1365,"o":"m 0 683 l 0 1024 l 341 1365 l 1024 1365 l 1365 1024 l 1365 683 l 1024 683 l 1024 1024 l 341 1024 l 341 683 l 0 683 m 341 341 l 341 683 l 1024 683 l 1024 341 l 341 341 m 0 0 l 0 170 l 1365 170 l 1365 0 l 0 0 "},"171":{"x_min":0,"x_max":1536,"ha":1536,"o":"m 1536 256 l 1024 768 l 1536 1280 l 1536 1024 l 1280 768 l 1536 512 l 1536 256 m 512 256 l 0 768 l 512 1280 l 512 1024 l 256 768 l 512 512 l 512 256 "},"172":{"x_min":0,"x_max":1536,"ha":1536,"o":"m 0 512 l 0 1024 l 1536 1024 l 1536 854 l 170 854 l 170 512 l 0 512 "},"173":{"x_min":0,"x_max":1024,"ha":1024,"o":"m 0 683 l 0 853 l 1024 853 l 1024 683 l 0 683 "},"174":{"x_min":0,"x_max":1878,"ha":1878,"o":"m 0 341 l 341 0 l 1536 0 l 1878 341 l 1878 1024 l 1536 1365 l 341 1365 l 0 1024 l 0 341 m 341 341 l 341 1024 l 1536 1024 l 1536 341 l 341 341 m 683 683 l 683 1195 l 1024 1195 l 1365 853 l 1365 512 l 1024 170 l 683 170 l 683 683 m 1024 512 l 1024 853 l 1365 853 l 1365 512 l 1024 512 m 1024 170 l 1024 512 l 683 512 l 683 170 l 1024 170 "},"175":{"x_min":0,"x_max":1365,"ha":1365,"o":"m 0 1365 l 0 1536 l 1365 1536 l 1365 1365 l 0 1365 "},"176":{"x_min":256,"x_max":1280,"ha":1536,"o":"m 256 1024 l 597 683 l 939 1024 l 1280 1365 l 939 1707 l 597 1365 l 256 1024 m 597 1024 l 597 1365 l 939 1365 l 939 1024 l 597 1024 "},"177":{"x_min":0,"x_max":1536,"ha":1536,"o":"m 683 341 l 683 683 l 0 683 l 0 853 l 683 853 l 683 1195 l 853 1195 l 853 853 l 1536 853 l 1536 683 l 853 683 l 853 341 l 683 341 m 0 0 l 0 170 l 1536 170 l 1536 0 l 0 0 "},"178":{"x_min":0,"x_max":1024,"ha":1024,"o":"m 0 683 l 0 853 l 683 1536 l 341 1536 l 0 1195 l 0 1536 l 341 1536 l 683 1536 l 1024 1195 l 1024 1024 l 341 683 l 1024 683 l 1024 683 l 0 683 "},"179":{"x_min":0,"x_max":1024,"ha":1024,"o":"m 0 1195 l 341 853 l 683 853 l 1024 1195 l 1024 1365 l 683 1707 l 341 1707 l 0 1365 l 341 1365 l 683 1365 l 683 1195 l 341 1195 l 341 1024 l 683 1024 l 683 1195 l 341 1195 "},"180":{"x_min":410,"x_max":922,"ha":1331,"o":"m 410 1024 l 410 1536 l 922 1536 l 922 1024 l 410 1024 "},"181":{"x_min":0,"x_max":1365,"ha":1365,"o":"m 0 -341 l 0 1024 l 341 1024 l 341 341 l 1024 341 l 1024 1024 l 1365 1024 l 1365 0 l 1024 0 l 1024 341 l 341 341 l 341 -341 l 0 -341 "},"182":{"x_min":0,"x_max":1365,"ha":1365,"o":"m 0 1024 l 0 1365 l 1365 1365 l 1365 1024 l 1024 1024 l 1024 -341 l 683 -341 l 683 1024 l 341 1024 l 341 -341 l 0 -341 l 0 1024 "},"183":{"x_min":341,"x_max":853,"ha":1194,"o":"m 341 683 l 341 1195 l 853 1195 l 853 683 l 341 683 "},"184":{"x_min":341,"x_max":853,"ha":1194,"o":"m 341 -341 l 341 171 l 853 171 l 853 -341 l 341 -341 "},"185":{"x_min":256,"x_max":768,"ha":1024,"o":"m 256 1195 l 512 1536 l 768 1536 l 768 683 l 427 683 l 427 1195 l 256 1195 "},"186":{"x_min":0,"x_max":1365,"ha":1365,"o":"m 0 683 l 341 341 l 1024 341 l 1365 683 l 1365 1024 l 1024 1365 l 341 1365 l 0 1024 l 0 683 m 341 683 l 341 1024 l 1024 1024 l 1024 683 l 341 683 m 0 0 l 0 170 l 1365 170 l 1365 0 l 0 0 "},"187":{"x_min":0,"x_max":1536,"ha":1536,"o":"m 0 256 l 0 512 l 256 768 l 0 1024 l 0 1280 l 512 768 l 0 256 m 1024 256 l 1024 512 l 1280 768 l 1024 1024 l 1024 1280 l 1536 768 l 1024 256 "},"188":{"x_min":0,"x_max":2048,"ha":2048,"o":"m 0 1024 l 341 1365 l 683 1365 l 683 0 l 341 0 l 341 1024 l 0 1024 m 683 683 l 683 1024 l 1024 1365 l 1365 1024 l 1024 683 l 683 683 m 1024 0 l 1024 341 l 1707 1024 l 1024 1024 l 1024 1365 l 1365 1365 l 1707 1365 l 2048 1024 l 2048 683 l 1365 0 l 2048 0 l 2048 0 l 1024 0 "},"189":{"x_min":0,"x_max":2048,"ha":2048,"o":"m 0 1024 l 341 1365 l 683 1365 l 683 0 l 341 0 l 341 1024 l 0 1024 m 683 683 l 683 1024 l 1024 1365 l 1365 1024 l 1024 683 l 683 683 m 1024 1024 l 1365 683 l 1707 683 l 2048 1024 l 2048 1195 l 1707 1536 l 1365 1536 l 1024 1195 l 1365 1195 l 1707 1195 l 1707 1024 l 1365 1024 l 1365 853 l 1707 853 l 1707 1024 l 1365 1024 "},"190":{"x_min":0,"x_max":2048,"ha":2048,"o":"m 0 1024 l 341 683 l 683 683 l 1024 1024 l 1024 1195 l 683 1536 l 341 1536 l 0 1195 l 341 1195 l 683 1195 l 683 1024 l 341 1024 l 341 853 l 683 853 l 683 1024 l 341 1024 m 683 683 l 683 1024 l 1024 1365 l 1365 1024 l 1024 683 l 683 683 m 1024 0 l 1024 341 l 1707 1024 l 1024 1024 l 1024 1365 l 1365 1365 l 1707 1365 l 2048 1024 l 2048 683 l 1365 0 l 2048 0 l 2048 0 l 1024 0 "},"191":{"x_min":0,"x_max":1365,"ha":1365,"o":"m 1365 341 l 1024 0 l 341 0 l 0 341 l 0 683 l 341 1024 l 683 1024 l 683 1365 l 1024 1365 l 1024 1024 l 683 683 l 341 683 l 341 341 l 1024 341 l 1365 341 m 1024 1707 l 1024 2048 l 683 2048 l 683 1707 l 1024 1707 "},"192":{"x_min":0,"x_max":1365,"ha":1365,"o":"m 0 0 l 0 1024 l 341 1365 l 1024 1365 l 1365 1024 l 1365 0 l 1024 0 l 1024 1024 l 341 1024 l 341 0 l 0 0 m 341 512 l 341 853 l 1024 853 l 1024 512 l 341 512 m 341 1536 l 341 2048 l 683 2048 l 1024 1707 l 683 1365 l 341 1536 "},"193":{"x_min":0,"x_max":1365,"ha":1365,"o":"m 0 0 l 0 1024 l 341 1365 l 1024 1365 l 1365 1024 l 1365 0 l 1024 0 l 1024 1024 l 341 1024 l 341 0 l 0 0 m 341 512 l 341 853 l 1024 853 l 1024 512 l 341 512 m 683 1365 l 1024 1707 l 683 2048 l 341 1707 l 683 1536 l 683 1365 "},"194":{"x_min":0,"x_max":1365,"ha":1365,"o":"m 0 0 l 0 1024 l 341 1365 l 1024 1365 l 1365 1024 l 1365 0 l 1024 0 l 1024 1024 l 341 1024 l 341 0 l 0 0 m 341 512 l 341 853 l 1024 853 l 1024 512 l 341 512 m 341 1536 l 683 1707 l 1024 1536 l 1024 1878 l 683 2048 l 341 1878 l 341 1536 "},"195":{"x_min":0,"x_max":1365,"ha":1365,"o":"m 0 0 l 0 1024 l 341 1365 l 1024 1365 l 1365 1024 l 1365 0 l 1024 0 l 1024 1024 l 341 1024 l 341 0 l 0 0 m 341 512 l 341 853 l 1024 853 l 1024 512 l 341 512 m 171 1536 l 512 1707 l 683 1536 l 1024 1707 l 1195 1536 l 1365 1707 l 1024 1878 l 683 1707 l 512 1878 l 171 1707 l 171 1536 "},"196":{"x_min":0,"x_max":1365,"ha":1365,"o":"m 0 0 l 0 1024 l 341 1365 l 1024 1365 l 1365 1024 l 1365 0 l 1024 0 l 1024 1024 l 341 1024 l 341 0 l 0 0 m 341 512 l 341 853 l 1024 853 l 1024 512 l 341 512 m 341 1536 l 341 2048 l 683 2048 l 683 1536 l 341 1536 m 683 1536 l 683 2048 l 1024 2048 l 1024 1536 l 683 1536 "},"197":{"x_min":0,"x_max":1365,"ha":1365,"o":"m 0 0 l 0 1024 l 341 1365 l 1024 1365 l 1365 1024 l 1365 0 l 1024 0 l 1024 1024 l 341 1024 l 341 0 l 0 0 m 341 512 l 341 853 l 1024 853 l 1024 512 l 341 512 m 512 1536 l 853 1707 l 1195 1536 l 1024 1878 l 683 1878 l 512 1536 m 683 1707 l 683 1878 l 1024 1878 l 1024 1707 l 683 1707 "},"198":{"x_min":0,"x_max":1878,"ha":1878,"o":"m 0 0 l 0 1024 l 341 1365 l 683 1365 l 683 1024 l 1024 1024 l 1024 1365 l 1878 1365 l 1878 1024 l 1365 1024 l 1365 853 l 1707 853 l 1707 512 l 1365 512 l 1365 341 l 1878 341 l 1878 0 l 1024 0 l 1024 341 l 683 341 l 683 0 l 0 0 m 341 341 l 341 1024 l 683 1024 l 683 341 l 341 341 m 1024 512 l 1024 853 l 1365 853 l 1365 512 l 1024 512 "},"199":{"x_min":0,"x_max":1365,"ha":1365,"o":"m 1365 0 l 341 0 l 0 341 l 0 1024 l 341 1365 l 1365 1365 l 1365 1024 l 1024 1024 l 341 1024 l 341 341 l 1024 341 l 1365 341 l 1365 0 m 683 -341 l 683 0 l 1024 0 l 1024 -341 l 683 -341 "},"200":{"x_min":0,"x_max":1365,"ha":1365,"o":"m 0 0 l 0 1365 l 1365 1365 l 1365 1024 l 341 1024 l 341 853 l 1024 853 l 1024 512 l 341 512 l 341 341 l 1365 341 l 1365 0 l 0 0 m 341 1536 l 341 2048 l 683 2048 l 1024 1707 l 683 1365 l 341 1536 "},"201":{"x_min":0,"x_max":1365,"ha":1365,"o":"m 0 0 l 0 1365 l 1365 1365 l 1365 1024 l 341 1024 l 341 853 l 1024 853 l 1024 512 l 341 512 l 341 341 l 1365 341 l 1365 0 l 0 0 m 683 1365 l 1024 1707 l 683 2048 l 341 1707 l 683 1536 l 683 1365 "},"202":{"x_min":0,"x_max":1365,"ha":1365,"o":"m 0 0 l 0 1365 l 1365 1365 l 1365 1024 l 341 1024 l 341 853 l 1024 853 l 1024 512 l 341 512 l 341 341 l 1365 341 l 1365 0 l 0 0 m 341 1536 l 683 1707 l 1024 1536 l 1024 1878 l 683 2048 l 341 1878 l 341 1536 "},"203":{"x_min":0,"x_max":1365,"ha":1365,"o":"m 0 0 l 0 1365 l 1365 1365 l 1365 1024 l 341 1024 l 341 853 l 1024 853 l 1024 512 l 341 512 l 341 341 l 1365 341 l 1365 0 l 0 0 m 341 1536 l 341 2048 l 683 2048 l 683 1536 l 341 1536 m 683 1536 l 683 2048 l 1024 2048 l 1024 1536 l 683 1536 "},"204":{"x_min":341,"x_max":1024,"ha":1365,"o":"m 341 0 l 341 1365 l 1024 1365 l 1024 0 l 341 0 m 341 1536 l 341 2048 l 683 2048 l 1024 1707 l 683 1365 l 341 1536 "},"205":{"x_min":341,"x_max":1024,"ha":1365,"o":"m 341 0 l 341 1365 l 1024 1365 l 1024 0 l 341 0 m 683 1365 l 1024 1707 l 683 2048 l 341 1707 l 683 1536 l 683 1365 "},"206":{"x_min":341,"x_max":1024,"ha":1365,"o":"m 341 0 l 341 1365 l 1024 1365 l 1024 0 l 341 0 m 341 1536 l 683 1707 l 1024 1536 l 1024 1878 l 683 2048 l 341 1878 l 341 1536 "},"207":{"x_min":341,"x_max":1024,"ha":1365,"o":"m 341 0 l 341 1365 l 1024 1365 l 1024 0 l 341 0 m 341 1536 l 341 2048 l 683 2048 l 683 1536 l 341 1536 m 683 1536 l 683 2048 l 1024 2048 l 1024 1536 l 683 1536 "},"208":{"x_min":0,"x_max":1365,"ha":1365,"o":"m 0 0 l 0 1365 l 1024 1365 l 1365 1024 l 1365 341 l 1024 0 l 0 0 m 341 341 l 1024 341 l 1024 1024 l 341 1024 l 341 341 m 0 512 l 0 853 l 341 853 l 341 512 l 0 512 "},"209":{"x_min":0,"x_max":1365,"ha":1365,"o":"m 0 0 l 0 1365 l 341 1365 l 1024 682 l 1024 1365 l 1365 1365 l 1365 0 l 1024 0 l 341 683 l 341 0 l 0 0 m 171 1536 l 512 1707 l 683 1536 l 1024 1707 l 1195 1536 l 1365 1707 l 1024 1878 l 683 1707 l 512 1878 l 171 1707 l 171 1536 "},"210":{"x_min":0,"x_max":1365,"ha":1365,"o":"m 0 341 l 341 0 l 1024 0 l 1365 341 l 1365 1024 l 1024 1365 l 341 1365 l 0 1024 l 0 341 m 341 341 l 341 1024 l 1024 1024 l 1024 341 l 341 341 m 341 1536 l 341 2048 l 683 2048 l 1024 1707 l 683 1365 l 341 1536 "},"211":{"x_min":0,"x_max":1365,"ha":1365,"o":"m 0 341 l 341 0 l 1024 0 l 1365 341 l 1365 1024 l 1024 1365 l 341 1365 l 0 1024 l 0 341 m 341 341 l 341 1024 l 1024 1024 l 1024 341 l 341 341 m 683 1365 l 1024 1707 l 683 2048 l 341 1707 l 683 1536 l 683 1365 "},"212":{"x_min":0,"x_max":1365,"ha":1365,"o":"m 0 341 l 341 0 l 1024 0 l 1365 341 l 1365 1024 l 1024 1365 l 341 1365 l 0 1024 l 0 341 m 341 341 l 341 1024 l 1024 1024 l 1024 341 l 341 341 m 341 1536 l 683 1707 l 1024 1536 l 1024 1878 l 683 2048 l 341 1878 l 341 1536 "},"213":{"x_min":0,"x_max":1365,"ha":1365,"o":"m 0 341 l 341 0 l 1024 0 l 1365 341 l 1365 1024 l 1024 1365 l 341 1365 l 0 1024 l 0 341 m 341 341 l 341 1024 l 1024 1024 l 1024 341 l 341 341 m 171 1536 l 512 1707 l 683 1536 l 1024 1707 l 1195 1536 l 1365 1707 l 1024 1878 l 683 1707 l 512 1878 l 171 1707 l 171 1536 "},"214":{"x_min":0,"x_max":1365,"ha":1365,"o":"m 0 341 l 341 0 l 1024 0 l 1365 341 l 1365 1024 l 1024 1365 l 341 1365 l 0 1024 l 0 341 m 341 341 l 341 1024 l 1024 1024 l 1024 341 l 341 341 m 341 1536 l 341 2048 l 683 2048 l 683 1536 l 341 1536 m 683 1536 l 683 2048 l 1024 2048 l 1024 1536 l 683 1536 "},"215":{"x_min":0,"x_max":1365,"ha":1365,"o":"m 0 341 l 341 0 l 683 341 l 1024 0 l 1365 341 l 1024 683 l 1365 1024 l 1024 1365 l 683 1024 l 341 1365 l 0 1024 l 341 683 l 0 341 "},"216":{"x_min":0,"x_max":1365,"ha":1365,"o":"m 0 341 l 341 0 l 1024 0 l 1365 341 l 1365 1024 l 1024 1365 l 341 1365 l 0 1024 l 0 341 m 341 341 l 341 1024 l 1024 1024 l 1024 341 l 341 341 m 341 -341 l 341 0 l 683 341 l 1024 0 l 1024 -341 l 683 0 l 341 -341 "},"217":{"x_min":0,"x_max":1365,"ha":1365,"o":"m 0 341 l 341 0 l 1024 0 l 1365 341 l 1365 1365 l 1024 1365 l 1024 341 l 341 341 l 341 1365 l 0 1365 l 0 341 m 341 1536 l 341 2048 l 683 2048 l 1024 1707 l 683 1365 l 341 1536 "},"218":{"x_min":0,"x_max":1365,"ha":1365,"o":"m 0 341 l 341 0 l 1024 0 l 1365 341 l 1365 1365 l 1024 1365 l 1024 341 l 341 341 l 341 1365 l 0 1365 l 0 341 m 683 1365 l 1024 1707 l 683 2048 l 341 1707 l 683 1536 l 683 1365 "},"219":{"x_min":0,"x_max":1365,"ha":1365,"o":"m 0 341 l 341 0 l 1024 0 l 1365 341 l 1365 1365 l 1024 1365 l 1024 341 l 341 341 l 341 1365 l 0 1365 l 0 341 m 341 1536 l 683 1707 l 1024 1536 l 1024 1878 l 683 2048 l 341 1878 l 341 1536 "},"220":{"x_min":0,"x_max":1365,"ha":1365,"o":"m 0 341 l 341 0 l 1024 0 l 1365 341 l 1365 1365 l 1024 1365 l 1024 341 l 341 341 l 341 1365 l 0 1365 l 0 341 m 341 1536 l 341 2048 l 683 2048 l 683 1536 l 341 1536 m 683 1536 l 683 2048 l 1024 2048 l 1024 1536 l 683 1536 "},"221":{"x_min":0,"x_max":1365,"ha":1365,"o":"m 0 1365 l 341 1365 l 683 1024 l 1024 1365 l 1365 1365 l 853 512 l 853 0 l 512 0 l 512 512 l 0 1365 m 683 1365 l 1024 1707 l 683 2048 l 341 1707 l 683 1536 l 683 1365 "},"222":{"x_min":0,"x_max":1365,"ha":1365,"o":"m 0 0 l 0 1365 l 341 1365 l 341 1024 l 1024 1024 l 1365 683 l 1365 341 l 1024 0 l 341 0 l 341 -341 l 0 -341 l 0 0 m 341 341 l 1024 341 l 1024 683 l 341 683 l 341 341 "},"223":{"x_min":0,"x_max":1365,"ha":1365,"o":"m 0 341 l 341 0 l 683 341 l 683 683 l 1024 1024 l 1365 683 l 1365 341 l 1024 0 l 683 341 l 683 683 l 341 1024 l 341 1365 l 0 1024 l 0 341 m 341 341 l 341 683 l 683 683 l 683 341 l 341 341 "},"224":{"x_min":0,"x_max":1365,"ha":1365,"o":"m 0 0 l 0 683 l 341 1024 l 1024 1024 l 1365 683 l 1365 0 l 1024 0 l 1024 683 l 341 683 l 341 0 l 0 0 m 341 341 l 341 683 l 1024 683 l 1024 341 l 341 341 m 341 1195 l 341 1707 l 683 1707 l 1024 1365 l 683 1024 l 341 1195 "},"225":{"x_min":0,"x_max":1365,"ha":1365,"o":"m 0 0 l 0 683 l 341 1024 l 1024 1024 l 1365 683 l 1365 0 l 1024 0 l 1024 683 l 341 683 l 341 0 l 0 0 m 341 341 l 341 683 l 1024 683 l 1024 341 l 341 341 m 683 1024 l 1024 1365 l 683 1707 l 341 1365 l 683 1195 l 683 1024 "},"226":{"x_min":0,"x_max":1365,"ha":1365,"o":"m 0 0 l 0 683 l 341 1024 l 1024 1024 l 1365 683 l 1365 0 l 1024 0 l 1024 683 l 341 683 l 341 0 l 0 0 m 341 341 l 341 683 l 1024 683 l 1024 341 l 341 341 m 341 1195 l 683 1365 l 1024 1195 l 1024 1536 l 683 1707 l 341 1536 l 341 1195 "},"227":{"x_min":0,"x_max":1365,"ha":1365,"o":"m 0 0 l 0 683 l 341 1024 l 1024 1024 l 1365 683 l 1365 0 l 1024 0 l 1024 683 l 341 683 l 341 0 l 0 0 m 341 341 l 341 683 l 1024 683 l 1024 341 l 341 341 m 171 1195 l 512 1365 l 683 1195 l 1024 1365 l 1195 1195 l 1365 1365 l 1024 1536 l 683 1365 l 512 1536 l 171 1365 l 171 1195 "},"228":{"x_min":0,"x_max":1365,"ha":1365,"o":"m 0 0 l 0 683 l 341 1024 l 1024 1024 l 1365 683 l 1365 0 l 1024 0 l 1024 683 l 341 683 l 341 0 l 0 0 m 341 341 l 341 683 l 1024 683 l 1024 341 l 341 341 m 341 1195 l 341 1707 l 683 1707 l 683 1195 l 341 1195 m 683 1195 l 683 1707 l 1024 1707 l 1024 1195 l 683 1195 "},"229":{"x_min":0,"x_max":1365,"ha":1365,"o":"m 0 0 l 0 683 l 341 1024 l 1024 1024 l 1365 683 l 1365 0 l 1024 0 l 1024 683 l 341 683 l 341 0 l 0 0 m 341 341 l 341 683 l 1024 683 l 1024 341 l 341 341 m 512 1195 l 853 1365 l 1195 1195 l 1024 1536 l 683 1536 l 512 1195 m 683 1365 l 683 1536 l 1024 1536 l 1024 1365 l 683 1365 "},"230":{"x_min":0,"x_max":1878,"ha":1878,"o":"m 0 0 l 0 683 l 341 1024 l 683 1024 l 683 683 l 1024 683 l 1024 1024 l 1365 1024 l 1365 683 l 1707 683 l 1707 341 l 1365 341 l 1365 0 l 1024 0 l 1024 341 l 683 341 l 683 0 l 0 0 m 341 341 l 341 683 l 683 683 l 683 341 l 341 341 "},"231":{"x_min":0,"x_max":1365,"ha":1365,"o":"m 1365 0 l 341 0 l 0 341 l 0 683 l 341 1024 l 1365 1024 l 1365 683 l 1024 683 l 341 683 l 341 341 l 1024 341 l 1365 341 l 1365 0 m 683 -341 l 683 0 l 1024 0 l 1024 -341 l 683 -341 "},"232":{"x_min":0,"x_max":1365,"ha":1365,"o":"m 0 0 l 0 341 l 341 0 l 1365 0 l 1365 341 l 1024 341 l 341 341 l 341 683 l 1024 683 l 1024 1024 l 341 1024 l 0 683 l 0 0 m 341 1195 l 341 1707 l 683 1707 l 1024 1365 l 683 1024 l 341 1195 "},"233":{"x_min":0,"x_max":1365,"ha":1365,"o":"m 0 0 l 0 341 l 341 0 l 1365 0 l 1365 341 l 1024 341 l 341 341 l 341 683 l 1024 683 l 1024 1024 l 341 1024 l 0 683 l 0 0 m 683 1024 l 1024 1365 l 683 1707 l 341 1365 l 683 1195 l 683 1024 "},"234":{"x_min":0,"x_max":1365,"ha":1365,"o":"m 0 0 l 0 341 l 341 0 l 1365 0 l 1365 341 l 1024 341 l 341 341 l 341 683 l 1024 683 l 1024 1024 l 341 1024 l 0 683 l 0 0 m 341 1195 l 683 1365 l 1024 1195 l 1024 1536 l 683 1707 l 341 1536 l 341 1195 "},"235":{"x_min":0,"x_max":1365,"ha":1365,"o":"m 0 0 l 0 341 l 341 0 l 1365 0 l 1365 341 l 1024 341 l 341 341 l 341 683 l 1024 683 l 1024 1024 l 341 1024 l 0 683 l 0 0 m 341 1195 l 341 1707 l 683 1707 l 683 1195 l 341 1195 m 683 1195 l 683 1707 l 1024 1707 l 1024 1195 l 683 1195 "},"236":{"x_min":341,"x_max":1024,"ha":1365,"o":"m 341 0 l 341 1024 l 1024 1024 l 1024 0 l 341 0 m 341 1195 l 341 1707 l 683 1707 l 1024 1365 l 683 1024 l 341 1195 "},"237":{"x_min":341,"x_max":1024,"ha":1365,"o":"m 341 0 l 341 1024 l 1024 1024 l 1024 0 l 341 0 m 683 1024 l 1024 1365 l 683 1707 l 341 1365 l 683 1195 l 683 1024 "},"238":{"x_min":341,"x_max":1024,"ha":1365,"o":"m 341 0 l 341 1024 l 1024 1024 l 1024 0 l 341 0 m 341 1195 l 683 1365 l 1024 1195 l 1024 1536 l 683 1707 l 341 1536 l 341 1195 "},"239":{"x_min":341,"x_max":1024,"ha":1365,"o":"m 341 0 l 341 1024 l 1024 1024 l 1024 0 l 341 0 m 341 1195 l 341 1707 l 683 1707 l 683 1195 l 341 1195 m 683 1195 l 683 1707 l 1024 1707 l 1024 1195 l 683 1195 "},"240":{"x_min":0,"x_max":1365,"ha":1365,"o":"m 0 341 l 341 0 l 1024 0 l 1365 341 l 1365 683 l 1024 1024 l 683 1024 l 683 1195 l 853 1365 l 1024 1195 l 1195 1365 l 1024 1536 l 853 1365 l 683 1536 l 512 1365 l 683 1195 l 341 1024 l 0 683 l 0 341 m 341 341 l 341 683 l 1024 683 l 1024 341 l 341 341 "},"241":{"x_min":0,"x_max":1365,"ha":1365,"o":"m 0 0 l 0 1024 l 341 1024 l 341 683 l 1024 683 l 1365 1024 l 1365 0 l 1024 0 l 1024 341 l 341 341 l 341 0 l 0 0 m 171 1195 l 512 1365 l 683 1195 l 1024 1365 l 1195 1195 l 1365 1365 l 1024 1536 l 683 1365 l 512 1536 l 171 1365 l 171 1195 "},"242":{"x_min":0,"x_max":1365,"ha":1365,"o":"m 0 341 l 341 0 l 1024 0 l 1365 341 l 1365 683 l 1024 1024 l 341 1024 l 0 683 l 0 341 m 341 341 l 341 683 l 1024 683 l 1024 341 l 341 341 m 341 1195 l 341 1707 l 683 1707 l 1024 1365 l 683 1024 l 341 1195 "},"243":{"x_min":0,"x_max":1365,"ha":1365,"o":"m 0 341 l 341 0 l 1024 0 l 1365 341 l 1365 683 l 1024 1024 l 341 1024 l 0 683 l 0 341 m 341 341 l 341 683 l 1024 683 l 1024 341 l 341 341 m 683 1024 l 1024 1365 l 683 1707 l 341 1365 l 683 1195 l 683 1024 "},"244":{"x_min":0,"x_max":1365,"ha":1365,"o":"m 0 341 l 341 0 l 1024 0 l 1365 341 l 1365 683 l 1024 1024 l 341 1024 l 0 683 l 0 341 m 341 341 l 341 683 l 1024 683 l 1024 341 l 341 341 m 341 1195 l 683 1365 l 1024 1195 l 1024 1536 l 683 1707 l 341 1536 l 341 1195 "},"245":{"x_min":0,"x_max":1365,"ha":1365,"o":"m 0 341 l 341 0 l 1024 0 l 1365 341 l 1365 683 l 1024 1024 l 341 1024 l 0 683 l 0 341 m 341 341 l 341 683 l 1024 683 l 1024 341 l 341 341 m 171 1195 l 512 1365 l 683 1195 l 1024 1365 l 1195 1195 l 1365 1365 l 1024 1536 l 683 1365 l 512 1536 l 171 1365 l 171 1195 "},"246":{"x_min":0,"x_max":1365,"ha":1365,"o":"m 0 341 l 341 0 l 1024 0 l 1365 341 l 1365 683 l 1024 1024 l 341 1024 l 0 683 l 0 341 m 341 341 l 341 683 l 1024 683 l 1024 341 l 341 341 m 341 1195 l 341 1707 l 683 1707 l 683 1195 l 341 1195 m 683 1195 l 683 1707 l 1024 1707 l 1024 1195 l 683 1195 "},"247":{"x_min":0,"x_max":1536,"ha":1536,"o":"m 683 170 l 683 683 l 853 683 l 853 170 l 683 170 m 0 683 l 0 853 l 1536 853 l 1536 683 l 0 683 m 683 853 l 683 1365 l 853 1365 l 853 853 l 683 853 "},"248":{"x_min":0,"x_max":1365,"ha":1365,"o":"m 0 341 l 341 0 l 1024 0 l 1365 341 l 1365 683 l 1024 1024 l 341 1024 l 0 683 l 0 341 m 341 341 l 341 683 l 1024 683 l 1024 341 l 341 341 m 341 -171 l 341 171 l 683 512 l 1024 171 l 1024 -171 l 683 171 l 341 -171 "},"249":{"x_min":0,"x_max":1365,"ha":1365,"o":"m 0 341 l 341 0 l 1024 0 l 1024 1024 l 1365 1024 l 1365 0 l 1024 0 l 341 341 l 341 1024 l 0 1024 l 0 341 m 341 1195 l 341 1707 l 683 1707 l 1024 1365 l 683 1024 l 341 1195 "},"250":{"x_min":0,"x_max":1365,"ha":1365,"o":"m 0 341 l 341 0 l 1024 0 l 1024 1024 l 1365 1024 l 1365 0 l 1024 0 l 341 341 l 341 1024 l 0 1024 l 0 341 m 683 1024 l 1024 1365 l 683 1707 l 341 1365 l 683 1195 l 683 1024 "},"251":{"x_min":0,"x_max":1365,"ha":1365,"o":"m 0 341 l 341 0 l 1024 0 l 1024 1024 l 1365 1024 l 1365 0 l 1024 0 l 341 341 l 341 1024 l 0 1024 l 0 341 m 341 1195 l 683 1365 l 1024 1195 l 1024 1536 l 683 1707 l 341 1536 l 341 1195 "},"252":{"x_min":0,"x_max":1365,"ha":1365,"o":"m 0 341 l 341 0 l 1024 0 l 1024 1024 l 1365 1024 l 1365 0 l 1024 0 l 341 341 l 341 1024 l 0 1024 l 0 341 m 341 1195 l 341 1707 l 683 1707 l 683 1195 l 341 1195 m 683 1195 l 683 1707 l 1024 1707 l 1024 1195 l 683 1195 "},"253":{"x_min":0,"x_max":1365,"ha":1365,"o":"m 0 1024 l 341 1024 l 683 341 l 1024 1024 l 1365 1024 l 1024 0 l 683 -341 l 341 -341 l 683 0 l 0 1024 m 683 1024 l 1024 1365 l 683 1707 l 341 1365 l 683 1195 l 683 1024 "},"254":{"x_min":0,"x_max":1365,"ha":1365,"o":"m 0 -341 l 0 1365 l 341 1365 l 341 1024 l 1024 1024 l 1365 683 l 1365 341 l 1024 0 l 341 0 l 341 -341 l 0 -341 m 341 341 l 1024 341 l 1024 683 l 341 683 l 341 341 "},"255":{"x_min":0,"x_max":1365,"ha":1365,"o":"m 0 1024 l 341 1024 l 683 341 l 1024 1024 l 1365 1024 l 1024 0 l 683 -341 l 341 -341 l 683 0 l 0 1024 m 341 1195 l 341 1707 l 683 1707 l 683 1195 l 341 1195 m 683 1195 l 683 1707 l 1024 1707 l 1024 1195 l 683 1195 "}}}
